<svg width="139" height="16" viewBox="0 0 139 16" fill="none" xmlns="http://www.w3.org/2000/svg">
<path d="M32.1898 5.85831H20.5369L20.1193 6.17054V15.832H23.3251V12.1952L23.619 11.9239H32.1898C34.3572 11.9239 35.3544 11.3788 35.3544 9.98139V7.75989C35.3544 6.40088 34.3572 5.85831 32.1898 5.85831ZM32.1898 9.42857C32.1898 10.0889 31.731 10.1964 30.6899 10.1964H23.674L23.3388 9.92508V7.87762L23.6328 7.60633H30.7119C31.7118 7.60633 32.2118 7.7215 32.2118 8.37413V9.42089L32.1898 9.42857Z" fill="white"/>
<path d="M41.277 7.68311L44.068 11.4863L43.9004 11.8369H37.736L36.1537 13.6591H45.3179L45.9826 14.0098L47.4001 15.832H51.1059L42.9856 5.74313" fill="white"/>
<path d="M78.0543 13.8921V11.1766L78.3894 10.9053H84.5949V9.19824H74.7661V15.832H89.2594V14.125H78.4306" fill="white"/>
<path d="M89.3858 5.86087H74.7661V7.72406H89.3858V5.86087Z" fill="white"/>
<path d="M58.4816 7.64471H70.2691C70.1015 6.24732 69.1428 5.85318 66.8106 5.85318H58.3552C55.6906 5.85318 54.8555 6.31898 54.8555 8.22056V13.503C54.8555 15.3662 55.6796 15.8704 58.3552 15.8704H66.8023C69.1758 15.8704 70.0988 15.443 70.1757 14.0072H58.4733L58.1382 13.6975V7.87761" fill="white"/>
<path d="M12.2051 9.73825H3.66729L3.41731 9.46696V7.75989L3.66729 7.56538H15.2048L15.3697 7.21731C14.9961 6.28571 13.9549 5.81992 12.0732 5.81992H4.04089C1.37626 5.81992 0.543913 6.28571 0.543913 8.1873V9.3134C0.543913 11.174 1.36802 11.6808 4.04089 11.6808H12.5814L12.8314 11.9137V13.7052L12.6226 13.9765H0.293933C0.293933 13.9765 0 14.1326 0 14.171C0.208775 15.4916 1.16749 15.8397 3.45852 15.8397H12.2051C14.8697 15.8397 15.746 15.3739 15.746 13.4723V12.1056C15.746 10.245 14.8697 9.73825 12.2051 9.73825Z" fill="white"/>
<path d="M98.591 5.81992H93.759L93.509 6.28571L98.841 9.93276C99.8409 9.39018 100.964 8.8476 102.137 8.30247" fill="white"/>
<path d="M102.923 12.6508L107.629 15.832H112.461L112.67 15.4046L105.673 10.6315C104.755 11.2918 103.797 11.9521 102.926 12.6508" fill="white"/>
<path d="M97.8824 15.832H93.5091L93.1355 15.2894C96.0913 12.6098 109.343 1.21312 138.118 0C138.118 0 114.002 0.767799 97.8824 15.832" fill="#B2B0B2"/>
</svg>
